# 3ds Max Wavefront OBJ Exporter v0.97b - (c)2007 guruware
# File Created: 12.12.2018 10:06:55

mtllib ??2.mtl

#
# object ???
#

v  -6.5437 161.6915 -17.1135
v  -7.4974 163.7612 -15.9196
v  0.0000 163.2207 -16.1606
v  0.0000 157.9997 -18.9397
v  6.5437 161.6915 -17.1135
v  7.4974 163.7612 -15.9196
v  -7.4974 170.4505 -12.4132
v  0.0000 170.4330 -12.3800
v  7.4974 170.4505 -12.4132
v  0.0000 177.8547 -8.4897
v  -7.4974 177.8721 -8.5229
v  7.4974 177.8721 -8.5229
v  0.0000 185.2764 -4.5994
v  -7.4974 185.2938 -4.6326
v  7.4974 185.2938 -4.6326
v  0.0000 192.6981 -0.7090
v  -7.4974 192.7155 -0.7422
v  7.4974 192.7155 -0.7422
v  -6.6644 198.5014 2.2577
v  0.0000 199.2094 2.6619
v  6.6644 198.5014 2.2577
v  0.0000 163.3599 -16.4263
v  -7.4974 163.8657 -16.1188
v  -6.5425 161.7739 -17.2592
v  0.0000 158.1041 -19.1389
v  6.5425 161.7739 -17.2592
v  7.4974 163.8657 -16.1188
v  0.0000 170.5723 -12.6456
v  -7.4974 170.5549 -12.6124
v  7.4974 170.5549 -12.6124
v  0.0000 177.9939 -8.7553
v  -7.4974 177.9765 -8.7221
v  7.4974 177.9765 -8.7221
v  0.0000 185.4156 -4.8650
v  -7.4974 185.3983 -4.8318
v  7.4974 185.3983 -4.8318
v  0.0000 192.8374 -0.9747
v  -7.4974 192.8199 -0.9415
v  7.4974 192.8199 -0.9415
v  0.0000 199.3139 2.4625
v  -6.6644 198.5788 2.1101
v  6.6644 198.5788 2.1101
# 42 vertices

vn -0.6081 -0.7382 0.2920
vn -0.7289 -0.4425 0.5224
vn -0.0000 -0.4672 0.8841
vn 0.0000 -0.9859 0.1672
vn 0.6081 -0.7382 0.2920
vn 0.7289 -0.4425 0.5224
vn -0.7089 -0.3275 0.6247
vn 0.0000 -0.4643 0.8857
vn 0.7089 -0.3275 0.6247
vn -0.0000 -0.4643 0.8857
vn -0.7088 -0.3275 0.6247
vn 0.7088 -0.3275 0.6247
vn 0.0000 -0.4620 0.8869
vn -0.7205 -0.2793 0.6347
vn 0.7205 -0.2793 0.6347
vn -0.5701 0.2344 0.7874
vn 0.0000 0.3335 0.9428
vn 0.5701 0.2344 0.7874
vn -0.0000 0.4613 -0.8872
vn -0.7350 0.1860 -0.6521
vn -0.5767 -0.1100 -0.8095
vn 0.0000 -0.4284 -0.9036
vn 0.5767 -0.1100 -0.8095
vn 0.7350 0.1860 -0.6521
vn -0.0000 0.4643 -0.8857
vn -0.7089 0.3275 -0.6247
vn 0.7089 0.3275 -0.6247
vn 0.0000 0.4643 -0.8857
vn 0.0000 0.4665 -0.8845
vn -0.7205 0.3630 -0.5908
vn 0.7205 0.3630 -0.5908
vn 0.0000 0.9651 -0.2618
vn -0.5701 0.7810 -0.2550
vn 0.5701 0.7810 -0.2550
# 34 vertex normals

vt 0.6321 0.3432 0.0000
vt 0.6290 0.3480 0.0000
vt 0.6515 0.3474 0.0000
vt 0.6521 0.3353 0.0000
vt 0.6712 0.3442 0.0000
vt 0.6738 0.3491 0.0000
vt 0.6281 0.3636 0.0000
vt 0.6506 0.3642 0.0000
vt 0.6731 0.3647 0.0000
vt 0.6497 0.3814 0.0000
vt 0.6273 0.3809 0.0000
vt 0.6722 0.3819 0.0000
vt 0.6489 0.3987 0.0000
vt 0.6264 0.3981 0.0000
vt 0.6713 0.3992 0.0000
vt 0.6480 0.4159 0.0000
vt 0.6255 0.4154 0.0000
vt 0.6704 0.4165 0.0000
vt 0.6274 0.4288 0.0000
vt 0.6472 0.4310 0.0000
vt 0.6672 0.4298 0.0000
vt 0.6002 0.1135 0.0000
vt 0.6282 0.1125 0.0000
vt 0.6235 0.1057 0.0000
vt 0.5974 0.0959 0.0000
vt 0.5752 0.1107 0.0000
vt 0.5727 0.1181 0.0000
vt 0.6040 0.1378 0.0000
vt 0.6317 0.1349 0.0000
vt 0.5763 0.1406 0.0000
vt 0.6079 0.1627 0.0000
vt 0.6356 0.1599 0.0000
vt 0.5802 0.1655 0.0000
vt 0.6118 0.1876 0.0000
vt 0.6395 0.1848 0.0000
vt 0.5841 0.1904 0.0000
vt 0.6157 0.2125 0.0000
vt 0.6434 0.2097 0.0000
vt 0.5880 0.2153 0.0000
vt 0.6191 0.2343 0.0000
vt 0.6434 0.2294 0.0000
vt 0.5941 0.2344 0.0000
vt 0.6318 0.3430 0.0000
vt 0.6522 0.3350 0.0000
vt 0.6284 0.3479 0.0000
vt 0.6716 0.3440 0.0000
vt 0.6745 0.3491 0.0000
vt 0.6275 0.3636 0.0000
vt 0.6738 0.3647 0.0000
vt 0.6266 0.3808 0.0000
vt 0.6729 0.3820 0.0000
vt 0.6257 0.3981 0.0000
vt 0.6720 0.3992 0.0000
vt 0.6249 0.4154 0.0000
vt 0.6711 0.4165 0.0000
vt 0.6472 0.4314 0.0000
vt 0.6271 0.4289 0.0000
vt 0.6674 0.4300 0.0000
# 58 texture coords

o ???
g ???
usemtl Material__0
s 1
f 4/4/4 3/3/3 2/2/2 1/1/1 
f 6/6/6 3/3/3 4/4/4 5/5/5 
f 3/3/3 8/8/8 7/7/7 2/2/2 
f 9/9/9 8/8/8 3/3/3 6/6/6 
f 11/11/11 7/7/7 8/8/8 10/10/10 
f 10/10/10 8/8/8 9/9/9 12/12/12 
f 14/14/11 11/11/11 10/10/10 13/13/8 
f 13/13/8 10/10/10 12/12/12 15/15/12 
f 17/17/14 14/14/11 13/13/8 16/16/13 
f 16/16/13 13/13/8 15/15/12 18/18/15 
f 20/20/17 19/19/16 17/17/14 16/16/13 
f 18/18/15 21/21/18 20/20/17 16/16/13 
f 25/25/22 24/24/21 23/23/20 22/22/19 
f 25/25/22 22/22/19 27/27/24 26/26/23 
f 22/22/19 23/23/20 29/29/26 28/28/25 
f 22/22/19 28/28/25 30/30/27 27/27/24 
f 32/32/26 31/31/28 28/28/25 29/29/26 
f 31/31/28 33/33/27 30/30/27 28/28/25 
f 35/35/26 34/34/25 31/31/28 32/32/26 
f 34/34/25 36/36/27 33/33/27 31/31/28 
f 38/38/30 37/37/29 34/34/25 35/35/26 
f 37/37/29 39/39/31 36/36/27 34/34/25 
f 38/38/30 41/41/33 40/40/32 37/37/29 
f 39/39/31 37/37/29 40/40/32 42/42/34 
f 25/44/22 4/4/4 1/1/1 24/43/21 
f 24/43/21 1/1/1 2/2/2 23/45/20 
f 26/46/23 5/5/5 4/4/4 25/44/22 
f 27/47/24 6/6/6 5/5/5 26/46/23 
f 23/45/20 2/2/2 7/7/7 29/48/26 
f 30/49/27 9/9/9 6/6/6 27/47/24 
f 29/48/26 7/7/7 11/11/11 32/50/26 
f 33/51/27 12/12/12 9/9/9 30/49/27 
f 32/50/26 11/11/11 14/14/11 35/52/26 
f 36/53/27 15/15/12 12/12/12 33/51/27 
f 35/52/26 14/14/11 17/17/14 38/54/30 
f 39/55/31 18/18/15 15/15/12 36/53/27 
f 41/57/33 19/19/16 20/20/17 40/56/32 
f 38/54/30 17/17/14 19/19/16 41/57/33 
f 42/58/34 21/21/18 18/18/15 39/55/31 
f 40/56/32 20/20/17 21/21/18 42/58/34 
# 40 polygons

