# 3ds Max Wavefront OBJ Exporter v0.97b - (c)2007 guruware
# File Created: 12.12.2018 10:06:41

mtllib ???.mtl

#
# object ??1
#

v  -48.4814 63.2118 -26.7177
v  -46.4718 70.6369 -23.9671
v  -42.1968 69.3864 -28.4812
v  -45.9953 57.3481 -32.8500
v  -39.5859 63.2152 -34.4414
v  -37.1355 70.6313 -32.0747
v  -41.3144 85.1710 -19.2556
v  -37.2226 85.1493 -22.7516
v  -33.1869 85.1693 -26.3102
v  -35.7021 101.2851 -13.8347
v  -32.1277 101.2647 -16.8809
v  -28.6087 101.2851 -19.9908
v  -30.5127 117.4012 -8.0457
v  -27.0328 117.3805 -11.0100
v  -23.6078 117.4006 -14.0386
v  -25.2248 133.8174 -1.9669
v  -21.8698 133.6045 -5.0612
v  -18.3301 133.8103 -7.9545
v  -19.6559 149.6117 4.3757
v  -16.6107 149.5944 0.9912
v  -12.8073 149.5906 -1.5663
v  -16.5764 156.6809 7.1347
v  -12.8804 160.6466 5.2801
v  -10.4803 156.6748 1.8864
v  -42.3742 69.5122 -28.6874
v  -46.5970 70.7183 -24.1092
v  -48.5753 63.2727 -26.8215
v  -46.1141 57.4329 -32.9944
v  -39.6630 63.2747 -34.5575
v  -37.2499 70.7170 -32.2224
v  -37.4000 85.2789 -22.9559
v  -41.4367 85.2590 -19.3964
v  -33.3081 85.2586 -26.4512
v  -32.3048 101.3951 -17.0849
v  -35.8239 101.3747 -13.9750
v  -28.7305 101.3747 -20.1311
v  -27.2097 117.5113 -11.2140
v  -30.6347 117.4909 -8.1857
v  -23.7293 117.4908 -14.1787
v  -22.0452 133.7393 -5.2632
v  -25.3510 133.9087 -2.1010
v  -18.4480 133.9071 -8.0928
v  -16.7837 149.7383 0.7993
v  -19.8010 149.7072 4.2770
v  -12.9084 149.7024 -1.7045
v  -12.9984 160.7455 5.1573
v  -16.6895 156.7536 7.0877
v  -10.5457 156.7524 1.7749
v  42.0928 69.3864 -28.4813
v  46.3678 70.6369 -23.9671
v  48.3774 63.2118 -26.7177
v  45.8913 57.3481 -32.8500
v  39.4819 63.2152 -34.4414
v  37.0315 70.6313 -32.0747
v  37.1186 85.1493 -22.7516
v  41.2104 85.1710 -19.2556
v  33.0829 85.1693 -26.3102
v  35.5981 101.2851 -13.8347
v  32.0237 101.2647 -16.8809
v  28.5047 101.2851 -19.9908
v  26.9288 117.3805 -11.0100
v  30.4087 117.4012 -8.0457
v  23.5037 117.4006 -14.0386
v  21.7658 133.6045 -5.0612
v  25.1207 133.8174 -1.9669
v  18.2261 133.8103 -7.9545
v  16.5067 149.5944 0.9912
v  19.5519 149.6117 4.3757
v  12.7033 149.5906 -1.5663
v  16.4724 156.6809 7.1347
v  12.7764 160.6466 5.2801
v  10.3763 156.6748 1.8864
v  48.4713 63.2727 -26.8215
v  46.4930 70.7183 -24.1092
v  42.2702 69.5122 -28.6874
v  46.0101 57.4329 -32.9944
v  37.1458 70.7170 -32.2224
v  39.5590 63.2747 -34.5575
v  41.3327 85.2590 -19.3964
v  37.2960 85.2789 -22.9559
v  33.2040 85.2586 -26.4512
v  35.7198 101.3747 -13.9750
v  32.2008 101.3951 -17.0849
v  28.6265 101.3747 -20.1311
v  30.5306 117.4909 -8.1857
v  27.1056 117.5113 -11.2140
v  23.6253 117.4908 -14.1787
v  25.2470 133.9087 -2.1010
v  21.9412 133.7393 -5.2632
v  18.3439 133.9071 -8.0928
v  19.6970 149.7072 4.2770
v  16.6797 149.7383 0.7993
v  12.8044 149.7024 -1.7045
v  16.5855 156.7536 7.0877
v  12.8944 160.7455 5.1573
v  10.4417 156.7524 1.7749
# 96 vertices

vn -0.2018 -0.5362 0.8196
vn -0.1232 -0.2912 0.9487
vn 0.5907 -0.4335 0.6805
vn 0.1007 -0.9864 0.1300
vn 0.8377 -0.5448 -0.0393
vn 0.9537 -0.2992 0.0318
vn -0.1097 -0.2767 0.9547
vn 0.5905 -0.4341 0.6804
vn 0.9603 -0.2777 0.0276
vn -0.1120 -0.2928 0.9496
vn 0.5904 -0.4344 0.6802
vn 0.9559 -0.2928 0.0229
vn -0.1208 -0.3056 0.9445
vn 0.5900 -0.4356 0.6798
vn 0.9521 -0.3056 0.0129
vn -0.1069 -0.3267 0.9391
vn 0.5878 -0.4423 0.6774
vn 0.9463 -0.3230 0.0126
vn 0.0204 -0.3752 0.9267
vn 0.5839 -0.4526 0.6740
vn 0.9324 -0.3527 0.0784
vn 0.2376 -0.1617 0.9578
vn 0.5861 0.4837 0.6500
vn 0.9530 -0.1135 0.2810
vn -0.5918 0.4299 -0.6819
vn -0.9551 0.2962 0.0018
vn -0.9997 -0.0166 -0.0180
vn -0.5621 -0.4960 -0.6619
vn 0.1631 -0.0365 -0.9859
vn 0.1571 0.2896 -0.9441
vn -0.5905 0.4341 -0.6804
vn -0.9427 0.3335 -0.0064
vn 0.1284 0.3329 -0.9342
vn -0.5904 0.4344 -0.6802
vn -0.9468 0.3216 -0.0124
vn 0.1210 0.3216 -0.9391
vn -0.5900 0.4356 -0.6798
vn -0.9505 0.3105 -0.0124
vn 0.1209 0.3107 -0.9428
vn -0.5878 0.4424 -0.6773
vn -0.9490 0.3149 0.0125
vn 0.1325 0.3195 -0.9383
vn -0.5832 0.4562 -0.6722
vn -0.9376 0.3031 0.1705
vn 0.2311 0.3321 -0.9145
vn -0.1186 0.9861 -0.1162
vn -0.7348 0.4779 0.4814
vn 0.4879 0.5150 -0.7048
vn -0.5907 -0.4335 0.6805
vn 0.1232 -0.2912 0.9487
vn 0.2018 -0.5362 0.8196
vn -0.1007 -0.9864 0.1300
vn -0.8377 -0.5448 -0.0393
vn -0.9536 -0.2992 0.0318
vn -0.5905 -0.4341 0.6804
vn 0.1097 -0.2767 0.9547
vn -0.9603 -0.2777 0.0276
vn 0.1120 -0.2928 0.9496
vn -0.5904 -0.4344 0.6802
vn -0.9559 -0.2928 0.0229
vn -0.5900 -0.4356 0.6798
vn 0.1208 -0.3056 0.9445
vn -0.9521 -0.3056 0.0129
vn -0.5878 -0.4423 0.6774
vn 0.1069 -0.3267 0.9391
vn -0.9463 -0.3230 0.0126
vn -0.5839 -0.4526 0.6740
vn -0.0204 -0.3752 0.9267
vn -0.9324 -0.3527 0.0784
vn -0.2376 -0.1617 0.9578
vn -0.5861 0.4837 0.6500
vn -0.9530 -0.1135 0.2810
vn 0.9997 -0.0165 -0.0180
vn 0.9551 0.2962 0.0018
vn 0.5918 0.4299 -0.6819
vn 0.5621 -0.4960 -0.6619
vn -0.1571 0.2896 -0.9441
vn -0.1631 -0.0366 -0.9859
vn 0.9427 0.3335 -0.0064
vn 0.5905 0.4341 -0.6804
vn -0.1284 0.3329 -0.9342
vn 0.9468 0.3216 -0.0123
vn 0.5904 0.4344 -0.6802
vn -0.1210 0.3216 -0.9391
vn 0.9505 0.3105 -0.0124
vn 0.5900 0.4356 -0.6798
vn -0.1209 0.3107 -0.9428
vn 0.9490 0.3149 0.0125
vn 0.5878 0.4424 -0.6773
vn -0.1325 0.3195 -0.9383
vn 0.9376 0.3031 0.1705
vn 0.5832 0.4562 -0.6722
vn -0.2311 0.3321 -0.9145
vn 0.7348 0.4779 0.4814
vn 0.1186 0.9861 -0.1162
vn -0.4879 0.5150 -0.7048
# 96 vertex normals

vt 0.1308 0.0143 0.0000
vt 0.1325 0.0266 0.0000
vt 0.1389 0.0205 0.0000
vt 0.1312 0.0032 0.0000
vt 0.1742 0.0129 0.0000
vt 0.1746 0.0027 0.0000
vt 0.1658 0.0192 0.0000
vt 0.1718 0.0242 0.0000
vt 0.1343 0.0519 0.0000
vt 0.1454 0.0473 0.0000
vt 0.1578 0.0442 0.0000
vt 0.1685 0.0472 0.0000
vt 0.1347 0.0812 0.0000
vt 0.1481 0.0782 0.0000
vt 0.1533 0.0725 0.0000
vt 0.1664 0.0738 0.0000
vt 0.1338 0.1112 0.0000
vt 0.1472 0.1106 0.0000
vt 0.1524 0.1017 0.0000
vt 0.1656 0.1008 0.0000
vt 0.1318 0.1415 0.0000
vt 0.1426 0.1430 0.0000
vt 0.1551 0.1305 0.0000
vt 0.1658 0.1280 0.0000
vt 0.1284 0.1708 0.0000
vt 0.1342 0.1734 0.0000
vt 0.1615 0.1570 0.0000
vt 0.1675 0.1540 0.0000
vt 0.1255 0.1849 0.0000
vt 0.1255 0.1925 0.0000
vt 0.1689 0.1733 0.0000
vt 0.1695 0.1665 0.0000
vt 0.1211 0.0232 0.0000
vt 0.1271 0.0273 0.0000
vt 0.1295 0.0144 0.0000
vt 0.1299 0.0033 0.0000
vt 0.1755 0.0129 0.0000
vt 0.1772 0.0242 0.0000
vt 0.1834 0.0198 0.0000
vt 0.1759 0.0027 0.0000
vt 0.1129 0.0524 0.0000
vt 0.1238 0.0535 0.0000
vt 0.1789 0.0475 0.0000
vt 0.1896 0.0452 0.0000
vt 0.1083 0.0845 0.0000
vt 0.1216 0.0832 0.0000
vt 0.1794 0.0741 0.0000
vt 0.1924 0.0737 0.0000
vt 0.1073 0.1169 0.0000
vt 0.1206 0.1132 0.0000
vt 0.1786 0.1012 0.0000
vt 0.1916 0.1029 0.0000
vt 0.1099 0.1482 0.0000
vt 0.1209 0.1431 0.0000
vt 0.1767 0.1283 0.0000
vt 0.1873 0.1315 0.0000
vt 0.1165 0.1762 0.0000
vt 0.1227 0.1716 0.0000
vt 0.1731 0.1541 0.0000
vt 0.1791 0.1577 0.0000
vt 0.1242 0.1926 0.0000
vt 0.1248 0.1849 0.0000
vt 0.1702 0.1665 0.0000
vt 0.1703 0.1732 0.0000
vt 0.0163 0.0238 0.0000
vt 0.0217 0.0283 0.0000
vt 0.0238 0.0168 0.0000
vt 0.0235 0.0072 0.0000
vt 0.0657 0.1766 0.0000
vt 0.0735 0.1937 0.0000
vt 0.0740 0.1836 0.0000
vt 0.0717 0.1719 0.0000
vt 0.0099 0.0502 0.0000
vt 0.0197 0.0529 0.0000
vt 0.0590 0.1495 0.0000
vt 0.0696 0.1465 0.0000
vt 0.0186 0.0825 0.0000
vt 0.0066 0.0817 0.0000
vt 0.0686 0.1160 0.0000
vt 0.0554 0.1171 0.0000
vt 0.0067 0.1147 0.0000
vt 0.0187 0.1130 0.0000
vt 0.0689 0.0844 0.0000
vt 0.0558 0.0830 0.0000
vt 0.0105 0.1462 0.0000
vt 0.0199 0.1428 0.0000
vt 0.0602 0.0504 0.0000
vt 0.0704 0.0537 0.0000
vt 0.0171 0.1732 0.0000
vt 0.0219 0.1695 0.0000
vt 0.0675 0.0223 0.0000
vt 0.0729 0.0260 0.0000
vt 0.0239 0.1818 0.0000
vt 0.0235 0.1889 0.0000
vt 0.0751 0.0132 0.0000
vt 0.0748 0.0060 0.0000
vt 0.0246 0.0168 0.0000
vt 0.0266 0.0281 0.0000
vt 0.0320 0.0235 0.0000
vt 0.0251 0.0072 0.0000
vt 0.0830 0.1766 0.0000
vt 0.0771 0.1719 0.0000
vt 0.0748 0.1836 0.0000
vt 0.0753 0.1936 0.0000
vt 0.0287 0.0526 0.0000
vt 0.0383 0.0494 0.0000
vt 0.0900 0.1496 0.0000
vt 0.0796 0.1465 0.0000
vt 0.0299 0.0821 0.0000
vt 0.0419 0.0805 0.0000
vt 0.0942 0.1174 0.0000
vt 0.0812 0.1161 0.0000
vt 0.0300 0.1126 0.0000
vt 0.0420 0.1136 0.0000
vt 0.0945 0.0833 0.0000
vt 0.0815 0.0845 0.0000
vt 0.0290 0.1425 0.0000
vt 0.0384 0.1454 0.0000
vt 0.0908 0.0505 0.0000
vt 0.0806 0.0537 0.0000
vt 0.0268 0.1694 0.0000
vt 0.0317 0.1729 0.0000
vt 0.0838 0.0222 0.0000
vt 0.0783 0.0260 0.0000
vt 0.0247 0.1818 0.0000
vt 0.0250 0.1888 0.0000
vt 0.0764 0.0060 0.0000
vt 0.0760 0.0132 0.0000
# 128 texture coords

o ??1
g ??1
usemtl Material__0
s 1
f 4/4/4 3/3/3 2/2/2 1/1/1 
f 6/8/6 3/7/3 4/6/4 5/5/5 
f 3/3/3 8/10/8 7/9/7 2/2/2 
f 9/12/9 8/11/8 3/7/3 6/8/6 
f 11/14/11 10/13/10 7/9/7 8/10/8 
f 9/12/9 12/16/12 11/15/11 8/11/8 
f 14/18/14 13/17/13 10/13/10 11/14/11 
f 15/20/15 14/19/14 11/15/11 12/16/12 
f 14/18/14 17/22/17 16/21/16 13/17/13 
f 18/24/18 17/23/17 14/19/14 15/20/15 
f 17/22/17 20/26/20 19/25/19 16/21/16 
f 21/28/21 20/27/20 17/23/17 18/24/18 
f 23/30/23 22/29/22 19/25/19 20/26/20 
f 21/28/21 24/32/24 23/31/23 20/27/20 
f 28/36/28 27/35/27 26/34/26 25/33/25 
f 28/40/28 25/39/25 30/38/30 29/37/29 
f 25/33/25 26/34/26 32/42/32 31/41/31 
f 25/39/25 31/44/31 33/43/33 30/38/30 
f 32/42/32 35/46/35 34/45/34 31/41/31 
f 33/43/33 31/44/31 34/48/34 36/47/36 
f 35/46/35 38/50/38 37/49/37 34/45/34 
f 34/48/34 37/52/37 39/51/39 36/47/36 
f 37/49/37 38/50/38 41/54/41 40/53/40 
f 37/52/37 40/56/40 42/55/42 39/51/39 
f 40/53/40 41/54/41 44/58/44 43/57/43 
f 40/56/40 43/60/43 45/59/45 42/55/42 
f 44/58/44 47/62/47 46/61/46 43/57/43 
f 45/59/45 43/60/43 46/64/46 48/63/48 
f 27/35/27 28/36/28 4/4/4 1/1/1 
f 26/34/26 27/35/27 1/1/1 2/2/2 
f 28/40/28 29/37/29 5/5/5 4/6/4 
f 29/37/29 30/38/30 6/8/6 5/5/5 
f 32/42/32 26/34/26 2/2/2 7/9/7 
f 30/38/30 33/43/33 9/12/9 6/8/6 
f 35/46/35 32/42/32 7/9/7 10/13/10 
f 33/43/33 36/47/36 12/16/12 9/12/9 
f 38/50/38 35/46/35 10/13/10 13/17/13 
f 36/47/36 39/51/39 15/20/15 12/16/12 
f 41/54/41 38/50/38 13/17/13 16/21/16 
f 39/51/39 42/55/42 18/24/18 15/20/15 
f 44/58/44 41/54/41 16/21/16 19/25/19 
f 42/55/42 45/59/45 21/28/21 18/24/18 
f 46/61/46 47/62/47 22/29/22 23/30/23 
f 47/62/47 44/58/44 19/25/19 22/29/22 
f 45/59/45 48/63/48 24/32/24 21/28/21 
f 24/32/24 48/63/48 46/64/46 23/31/23 
f 52/68/52 51/67/51 50/66/50 49/65/49 
f 54/72/54 53/71/53 52/70/52 49/69/49 
f 49/65/49 50/66/50 56/74/56 55/73/55 
f 57/76/57 54/72/54 49/69/49 55/75/55 
f 59/78/59 55/73/55 56/74/56 58/77/58 
f 57/76/57 55/75/55 59/80/59 60/79/60 
f 59/78/59 58/77/58 62/82/62 61/81/61 
f 60/79/60 59/80/59 61/84/61 63/83/63 
f 61/81/61 62/82/62 65/86/65 64/85/64 
f 66/88/66 63/83/63 61/84/61 64/87/64 
f 64/85/64 65/86/65 68/90/68 67/89/67 
f 69/92/69 66/88/66 64/87/64 67/91/67 
f 71/94/71 67/89/67 68/90/68 70/93/70 
f 69/92/69 67/91/67 71/96/71 72/95/72 
f 76/100/76 75/99/75 74/98/74 73/97/73 
f 76/104/76 78/103/78 77/102/77 75/101/75 
f 75/99/75 80/106/80 79/105/79 74/98/74 
f 75/101/75 77/102/77 81/108/81 80/107/80 
f 79/105/79 80/106/80 83/110/83 82/109/82 
f 81/108/81 84/112/84 83/111/83 80/107/80 
f 83/110/83 86/114/86 85/113/85 82/109/82 
f 84/112/84 87/116/87 86/115/86 83/111/83 
f 86/114/86 89/118/89 88/117/88 85/113/85 
f 86/115/86 87/116/87 90/120/90 89/119/89 
f 89/118/89 92/122/92 91/121/91 88/117/88 
f 89/119/89 90/120/90 93/124/93 92/123/92 
f 91/121/91 92/122/92 95/126/95 94/125/94 
f 93/124/93 96/128/96 95/127/95 92/123/92 
f 51/67/51 52/68/52 76/100/76 73/97/73 
f 50/66/50 51/67/51 73/97/73 74/98/74 
f 52/70/52 53/71/53 78/103/78 76/104/76 
f 53/71/53 54/72/54 77/102/77 78/103/78 
f 56/74/56 50/66/50 74/98/74 79/105/79 
f 54/72/54 57/76/57 81/108/81 77/102/77 
f 58/77/58 56/74/56 79/105/79 82/109/82 
f 57/76/57 60/79/60 84/112/84 81/108/81 
f 62/82/62 58/77/58 82/109/82 85/113/85 
f 60/79/60 63/83/63 87/116/87 84/112/84 
f 65/86/65 62/82/62 85/113/85 88/117/88 
f 63/83/63 66/88/66 90/120/90 87/116/87 
f 68/90/68 65/86/65 88/117/88 91/121/91 
f 66/88/66 69/92/69 93/124/93 90/120/90 
f 71/94/71 70/93/70 94/125/94 95/126/95 
f 70/93/70 68/90/68 91/121/91 94/125/94 
f 69/92/69 72/95/72 96/128/96 93/124/93 
f 72/95/72 71/96/71 95/127/95 96/128/96 
# 92 polygons

